<svg width="90" height="60" viewBox="0 0 90 60" fill="none" xmlns="http://www.w3.org/2000/svg">
<g clip-path="url(#clip0_527_4438)">
<path d="M36.7392 55.112C36.368 54.6346 35.9586 54.1249 35.4798 53.7596C32.6393 51.5925 28.6632 51.4267 25.2585 50.7669C17.3868 49.2413 11.412 42.325 12.4246 34.011C12.8754 30.1971 14.8292 26.724 17.8492 24.3685C20.7688 22.0908 24.471 21.0739 28.1383 21.5424C30.4621 21.8375 32.1144 22.5192 34.0907 23.7507C36.2394 22.2895 38.7455 21.5757 41.3223 22.0824C44.0351 22.6158 46.5653 24.6251 47.3134 27.3559C47.61 28.4382 47.4731 29.4418 47.3313 30.5319C47.4879 30.5381 47.703 30.5396 47.8538 30.5561C47.1062 30.5692 46.3583 30.5671 45.6106 30.5498C46.0927 30.5138 46.6554 30.5287 47.1444 30.5297C46.9431 28.6654 46.317 27.4073 44.8235 26.2109C43.2724 24.9606 41.2865 24.3882 39.3114 24.6218C37.2916 24.8667 35.6408 25.8942 34.2677 27.3636C31.5859 25.6613 28.7379 25.0214 25.6089 25.7293C22.7245 26.4015 20.2177 28.183 18.6268 30.6914C16.9415 33.3494 16.3987 36.5793 17.1221 39.6456C17.7957 42.5207 19.5497 45.0984 22.0575 46.6681C23.856 47.7938 25.9318 48.3709 27.9809 48.8403C30.9449 49.519 34.2373 49.8913 36.5334 52.1251C39.1234 49.4113 41.8888 47.9774 45.6902 47.8968C46.0228 47.8889 46.3556 47.891 46.6882 47.9035C45.8909 48.2032 45.01 48.3963 44.2039 48.7027C40.756 50.013 38.4062 51.7432 36.7392 55.112Z" fill="#C21E2E"/>
<path d="M19.5276 3.04289C21.9251 2.88233 24.9088 3.83799 26.7125 5.4508C27.1075 5.7824 27.6831 6.63569 28.1818 6.75018C30.9482 7.38498 34.2585 5.43338 36.5185 7.88067C37.9495 9.39401 37.6292 12.0339 36.1439 13.3857C35.3541 14.1044 34.5348 14.1614 33.5254 14.1019C33.5103 15.589 33.4113 17.067 33.3487 18.5529C28.0189 16.7022 24.3918 16.4372 18.922 18.088C20.0498 17.5122 21.543 17.1277 22.7738 16.8542C26.3519 16.1862 29.1527 16.2007 32.6385 17.324C32.7371 16.6354 32.7389 15.3133 32.7576 14.5766C31.7052 14.2076 30.7144 13.8667 29.6158 13.66C25.7688 12.9358 21.9938 13.5146 18.4114 14.9836L18.3559 17.7057C18.1265 16.7335 17.765 15.6045 17.5005 14.6133C13.2229 13.8192 11.9681 8.3486 14.567 5.18774C15.7773 3.71555 17.6922 3.18161 19.5276 3.04289Z" fill="white"/>
<path d="M20.1531 4.85477C22.0185 4.81261 23.8488 5.36927 25.3777 6.44372C27.4038 7.8899 28.4789 9.84188 31.2722 9.70858C29.677 9.43177 29.1801 8.89454 28.2505 7.60349C29.0211 7.79826 29.4858 7.84976 30.2859 7.83323C31.7419 7.80811 33.3044 7.28515 34.657 8.06372C35.9615 8.81452 36.2491 10.5793 35.4971 11.8254C35.19 12.3342 34.6705 12.7186 34.0735 12.8341C32.7948 13.0816 31.7956 12.1074 30.6328 11.7792C29.5244 11.4446 28.6548 11.3536 27.5029 11.3002C26.6182 11.2593 25.6556 11.254 24.8197 10.9786C24.2366 10.7864 23.8516 10.544 23.3559 10.1963C24.2117 11.4105 24.4323 11.4323 25.7426 11.8755L25.7465 11.9121L25.5459 11.9042C22.8274 11.7006 21.3207 11.3921 19.5704 9.16189C20.1562 11.3452 21.2827 11.8615 23.2789 12.5975C21.6345 12.8407 19.9263 12.8109 18.5294 11.8036C17.3739 10.9702 16.7079 9.74367 16.4656 8.35227C16.3757 9.29784 16.596 10.6197 17.0639 11.4537C17.7355 12.6507 18.5484 13.0987 19.8014 13.4683C19.3192 13.4895 18.8341 13.5204 18.3557 13.4912C15.9385 13.3641 14.4411 11.026 14.9392 8.71429C15.5108 6.06264 17.6434 4.95537 20.1531 4.85477Z" fill="white"/>
<path d="M78.0144 45.6973L78.0611 45.7228C78.0639 45.7627 78.0684 45.7993 78.0586 45.8379C77.8356 46.7124 77.3049 47.6245 76.794 48.3384C73.0616 53.5534 64.2478 51.0153 58.9462 50.2306C56.499 49.8683 54.4793 49.6198 51.9645 49.6974C46.7126 49.8594 42.5985 51.0339 38.2534 53.9592L37.6719 54.3823C38.0868 53.8017 38.5586 53.2642 39.0798 52.7779C43.4035 48.6923 51.39 47.2336 57.1321 47.5851C58.9301 47.7035 60.6329 47.9931 62.427 48.2112C66.9336 48.759 72.1557 49.5728 76.2619 47.1058C76.9226 46.7089 77.4643 46.2172 78.0144 45.6973Z" fill="white"/>
<path d="M28.6219 30.5277C30.9519 30.6649 36.6468 29.7098 35.8232 34.0474C35.7049 34.6697 35.1097 35.1586 34.5704 35.4509C34.6736 35.4847 34.7754 35.5227 34.8757 35.5646C36.4367 36.2019 36.5848 37.7215 36.0111 39.1018C35.15 40.8746 32.6867 40.7282 31.0255 40.7253L28.6094 40.7102C28.6732 37.3539 28.5881 33.8997 28.6219 30.5277Z" fill="white"/>
<path d="M30.9852 36.3526C31.9106 36.3425 33.6969 36.0936 33.9426 37.2796C34.0478 37.7873 33.9561 38.1579 33.648 38.565C32.8668 39.0222 31.8576 38.9309 30.9803 38.9053C30.974 38.0544 30.9757 37.2035 30.9852 36.3526Z" fill="#2C2C2C"/>
<path d="M30.9818 32.3438C31.9112 32.3123 33.5022 32.1893 33.583 33.5215C33.6062 33.9041 33.4524 34.1592 33.2093 34.4375C32.5091 34.8556 31.7684 34.8055 30.9803 34.8028C30.9749 33.9832 30.9754 33.1635 30.9818 32.3438Z" fill="#2C2C2C"/>
<path d="M24.6005 18.1377C28.1533 17.9362 30.876 18.8134 33.8725 20.6339C37.5033 18.8382 41.3351 18.7185 44.6602 21.2712C45.6331 22.0181 46.3063 22.8222 47.0335 23.7891C45.4051 22.5192 45.0549 21.9681 42.8929 21.2433C40.6748 20.5088 38.2778 20.5276 36.0716 21.2971C35.3777 21.5426 34.7294 21.8708 34.0731 22.2004C30.9973 20.0724 27.1494 19.4848 23.5005 19.9665C20.2951 20.4886 17.3285 21.9926 15.0064 24.2726C12.6849 26.599 11.1702 29.6139 10.6861 32.8717C10.5419 33.904 10.5293 34.9347 10.5238 35.9746C10.397 35.4632 10.3517 34.9053 10.3129 34.3785C10.0557 30.3693 11.3751 26.4189 13.9874 23.3764C16.7313 20.1902 20.4414 18.4417 24.6005 18.1377Z" fill="white"/>
<path d="M52.9949 30.4083C54.3506 30.3052 56.0306 30.6965 56.7705 31.9538C57.0845 32.4875 57.1277 32.9365 57.1839 33.5408L54.8859 33.5422C54.7721 32.6076 54.2905 32.1959 53.3345 32.1663C52.7699 32.1322 51.8502 32.5769 51.9175 33.2595C52.0264 34.3614 54.0621 34.7008 54.9109 35.0969C56.1604 35.6321 57.2664 36.3529 57.268 37.885C57.2707 40.2186 55.2847 40.8364 53.3502 40.8539C51.7271 40.7947 49.8844 40.2265 49.4906 38.407C49.4267 38.1118 49.413 37.756 49.3906 37.4513C50.1505 37.4283 50.9108 37.4206 51.671 37.4281C51.7143 37.8951 51.7734 38.3235 52.1442 38.6641C52.6867 39.2317 54.2541 39.2855 54.7249 38.5989C55.3574 37.6763 54.4563 37.0262 53.7272 36.7283C52.2012 36.0865 49.848 35.678 49.6149 33.679C49.3572 31.4696 51.1246 30.5886 52.9949 30.4083Z" fill="white"/>
<path d="M61.7208 30.4077C63.035 30.3389 64.6123 30.6371 65.4166 31.795C65.7976 32.3436 65.861 32.8909 65.9236 33.5355C65.1567 33.5651 64.3745 33.5493 63.606 33.5425C63.5571 33.1674 63.5268 32.9049 63.2547 32.6122C62.698 32.013 61.4704 32.0123 60.9161 32.6084C60.7485 32.7857 60.6595 33.0238 60.6693 33.2682C60.7059 34.0788 61.7948 34.4075 62.4305 34.6401C64.0395 35.2291 65.9704 35.8219 66.0032 37.8973C66.038 40.1069 64.1226 40.8181 62.2444 40.8549C59.9482 40.8048 58.1645 40.0105 58.1484 37.4479C58.8922 37.4349 59.667 37.4468 60.4133 37.4477C60.4649 37.92 60.5043 38.2842 60.8647 38.6525C61.6039 39.4082 63.7947 39.2555 63.6597 37.8732C63.6301 37.5501 63.3994 37.2385 63.1301 37.0686C61.9337 36.3137 60.4295 36.2156 59.3027 35.3128C58.7442 34.8652 58.4159 34.3845 58.3444 33.6514C58.133 31.4862 59.8461 30.5949 61.7208 30.4077Z" fill="white"/>
<path d="M37.6427 30.5428C38.4115 30.5648 39.1808 30.5632 39.9494 30.5381C40.0197 33.2069 39.9541 36.2087 39.9541 38.908L44.3085 38.9105L44.3081 40.7216L37.615 40.7124C37.5642 38.1794 37.6456 35.6191 37.6084 33.0832C37.5969 32.2916 37.5696 31.3216 37.6427 30.5428Z" fill="white"/>
<path d="M45.613 30.5498C46.3607 30.5671 47.1086 30.5692 47.8562 30.5561L47.8935 30.5903C48.0348 30.9674 47.9384 39.5396 47.938 40.7207C47.1708 40.7293 46.3825 40.7156 45.6136 40.7115C45.5874 37.3243 45.5871 33.937 45.613 30.5498Z" fill="white"/>
<path d="M49.5645 41.9171C50.6427 41.9008 51.9094 41.9462 51.9873 43.3432C52.0245 44.012 51.9661 44.4048 51.5204 44.9358C50.8832 45.4025 50.3193 45.3442 49.5622 45.3463C49.5707 44.1905 49.5397 43.0893 49.5645 41.9171Z" fill="white"/>
<path d="M49.974 42.2784C50.34 42.276 50.7175 42.2624 51.0404 42.4622C51.8098 42.9384 51.6463 44.0623 51.2253 44.7183C50.8099 45.0077 50.4825 44.9931 49.9986 44.9925C49.9704 44.088 49.9621 43.1832 49.974 42.2784Z" fill="#2C2C2C"/>
<path d="M54.0469 41.9246C54.3208 41.9173 54.5949 41.9186 54.8687 41.9282C55.3244 41.9471 56.3679 42.0753 56.2582 42.8128C56.2101 43.1354 56.0995 43.2654 55.8375 43.4401L55.7829 43.476L55.7447 43.5565C56.0666 43.7115 56.1919 43.802 56.2813 44.1634C56.4177 45.5249 55.0057 45.3421 54.0504 45.361L54.0469 41.9246Z" fill="white"/>
<path d="M54.4857 43.6914L55.4095 43.6994C55.7474 43.8338 55.7716 43.896 55.9492 44.2001L55.9656 44.2295C55.8783 45.1404 55.1623 45.0143 54.4545 44.998C54.4474 44.563 54.4692 44.1263 54.4857 43.6914Z" fill="#2C2C2C"/>
<path d="M55.4141 43.6998C55.5604 43.5618 55.5165 43.6046 55.7424 43.5566C56.0643 43.7116 56.1896 43.8022 56.279 44.1635C56.2335 44.3873 56.2748 44.3636 56.1398 44.4927C55.9789 44.45 55.9982 44.4036 55.9701 44.2299L55.9537 44.2005C55.7761 43.8964 55.7519 43.8342 55.4141 43.6998Z" fill="white"/>
<path d="M54.4822 42.2844C55.1382 42.269 56.3409 42.3088 55.6397 43.286C55.2473 43.464 54.8951 43.4545 54.4831 43.4208C54.4715 43.041 54.478 42.6641 54.4822 42.2844Z" fill="#2C2C2C"/>
<path d="M31.5127 41.9297C32.1528 41.8888 33.0594 41.8883 33.4892 42.4452C33.9293 43.0155 33.414 43.5636 32.9404 43.8805C33.1404 44.2051 33.6549 44.9662 33.5969 45.3226L33.5241 45.3684C33.2485 45.2995 33.2276 45.2093 33.0912 44.9714L32.5933 43.9568C32.3147 43.9495 32.016 43.9558 31.7356 43.9567L31.748 44.9767C31.749 45.175 31.758 45.2014 31.638 45.3222C31.4991 45.3386 31.4799 45.355 31.3568 45.2892C31.2668 45.0473 31.2554 42.0861 31.3322 41.9595L31.5127 41.9297Z" fill="white"/>
<path d="M31.7763 42.2832C32.6 42.2689 33.6158 42.3958 32.9633 43.4365C32.5502 43.6527 32.1809 43.6201 31.7344 43.6031C31.7298 43.263 31.7052 42.5915 31.7763 42.2832Z" fill="#2C2C2C"/>
<path d="M46.1068 41.8848C46.7859 41.9446 47.8278 43.9873 48.241 44.625C48.2397 43.8196 48.246 42.9814 48.2592 42.1736C48.2612 42.0524 48.3099 42.0232 48.3833 41.9711C48.5686 41.9734 48.5042 41.938 48.6266 42.0241C48.6354 42.0763 48.6427 42.1285 48.6486 42.181C48.7135 42.7425 48.6767 44.609 48.6672 45.2832C48.6421 45.3152 48.617 45.3473 48.5918 45.3794C48.5409 45.3725 48.4899 45.3659 48.4396 45.3556C48.066 45.279 46.7642 43.0245 46.508 42.6111C46.4915 43.3277 46.5717 44.4717 46.4757 45.2139C46.4664 45.2858 46.3862 45.3416 46.3177 45.3734L46.2457 45.3218C45.9821 44.786 46.0889 42.6067 46.1068 41.8848Z" fill="white"/>
<path d="M57.7997 42.7735C57.9064 42.4647 57.9543 42.2154 58.2046 42.011C58.5228 41.9422 58.5809 42.28 58.6673 42.5249L58.6833 42.5734C58.8557 43.0822 59.7723 44.979 59.6363 45.3062C59.2027 45.4729 59.0667 44.739 58.9592 44.4275L57.5561 44.4283C57.469 44.7029 57.3633 45.1865 57.139 45.3276L57.0129 45.3225C56.9505 45.2514 56.904 45.1971 56.9286 45.0778C57.0814 44.3359 57.5751 43.4954 57.7997 42.7735Z" fill="white"/>
<path d="M58.1013 42.8085C58.1366 42.7006 58.1821 42.5974 58.2258 42.4927L58.2945 42.4707L58.3787 42.6108C58.5085 43.0565 58.7094 43.6311 58.8768 44.0703C58.4427 44.108 58.1125 44.1047 57.6797 44.1003L58.1013 42.8085Z" fill="#2C2C2C"/>
<path d="M57.7969 42.7735C57.9036 42.4647 57.9515 42.2154 58.2018 42.011C58.52 41.9422 58.5781 42.28 58.6644 42.5249C58.5644 42.5576 58.4824 42.5855 58.3797 42.6113L58.2955 42.4712L58.2269 42.4932C58.1831 42.598 58.1376 42.7011 58.1023 42.809L57.7969 42.7735Z" fill="white"/>
<path d="M43.8804 41.8857C43.9625 41.8962 44.1338 41.9269 44.1694 41.9841C44.4245 42.3946 45.3982 44.9735 45.4135 45.2688C45.2969 45.3613 45.361 45.3234 45.1761 45.3316C44.9504 45.1993 44.8176 44.6684 44.7263 44.3972L44.3545 44.4163L43.2766 44.433C43.1795 44.756 43.1269 45.079 42.8867 45.3011C42.7253 45.3502 42.7946 45.3615 42.6684 45.3062C42.5866 45.0202 43.6913 42.3452 43.8804 41.8857Z" fill="white"/>
<path d="M44.0025 42.5117C44.1845 42.6829 44.5588 43.8317 44.6569 44.1219L44.1064 44.1153L43.375 44.1111C43.5769 43.5773 43.7743 43.034 44.0025 42.5117Z" fill="#2C2C2C"/>
<path d="M35.7896 41.9267C36.1414 41.9216 37.675 41.8563 37.9075 42.0377C37.9154 42.1712 37.936 42.1164 37.8529 42.2106C37.4867 42.3504 36.64 42.3055 36.2143 42.3034C36.2063 42.6781 36.2266 43.0733 36.2397 43.4496C36.5675 43.4451 37.5026 43.3427 37.6654 43.6284C37.4538 43.8303 36.5301 43.6339 36.2519 43.8229L36.2269 43.9846L36.2196 44.9933C36.495 44.9864 37.7629 44.9026 37.8948 45.1651C37.6118 45.4373 36.2178 45.3577 35.7891 45.3414C35.7953 44.2032 35.7955 43.0649 35.7896 41.9267Z" fill="white"/>
<path d="M64.1089 41.9358C64.4394 41.9195 65.532 41.7639 65.5478 42.1869L65.4777 42.2592C65.0846 42.3487 64.3077 42.3056 63.8756 42.2957C63.862 42.6781 63.8709 43.0684 63.875 43.4517C64.4994 43.4547 64.9214 43.447 65.5383 43.5678C64.8801 43.7395 64.5563 43.7201 63.8781 43.7343C63.861 44.0415 63.8699 44.4126 63.8699 44.7254C63.8792 44.8566 63.8706 44.8567 63.932 44.9695C64.435 45.1398 65.436 44.7081 65.6404 45.1781L65.5931 45.2337C65.0416 45.4188 64.0683 45.3571 63.4564 45.3414C63.5054 44.2821 63.4711 43.0145 63.4531 41.9489L64.1089 41.9358Z" fill="white"/>
<path d="M39.6414 41.9208C40.146 41.8987 40.949 42.2995 40.7594 42.9074L40.6752 42.946C40.3005 42.8343 40.3295 42.3009 39.9009 42.1753C39.6032 42.0882 38.9364 42.4045 38.924 42.7085C38.8889 43.5672 40.3276 43.3662 40.6872 44.0088C40.8773 44.3486 40.8177 44.5021 40.749 44.8572C40.4022 45.2696 40.2785 45.3058 39.7494 45.3686C39.3976 45.3193 38.1313 44.9718 38.542 44.4047C38.823 44.4672 39.272 45.1874 39.698 45.1083C40.6654 44.9352 40.7788 44.1386 39.7524 43.8387C38.3652 43.4334 37.8932 42.2905 39.6414 41.9208Z" fill="white"/>
<path d="M28.7877 41.9307C29.233 41.9127 30.3183 41.8369 30.6598 42.0791L30.6634 42.1475C30.3252 42.3722 29.4418 42.3024 29.0178 42.2903C29.0108 42.709 29.0103 43.0449 29.0324 43.4642C29.3941 43.4516 30.2753 43.3519 30.5079 43.6188C30.489 43.7623 30.5158 43.6967 30.4058 43.8133C29.9842 43.8568 29.4465 43.8492 29.0145 43.8546C29.0035 44.2732 29.0499 44.7318 29.0204 45.1544C29.0124 45.2667 28.9559 45.2762 28.8724 45.3281C28.6881 45.3382 28.7648 45.3635 28.6264 45.2811C28.5598 44.9722 28.5142 42.1827 28.6077 41.9636L28.7877 41.9307Z" fill="white"/>
<path d="M60.7701 44.1444C60.7756 44.4242 60.8847 45.3093 60.5061 45.3293C60.2518 45.0769 60.2749 42.1968 60.421 41.9721C60.6109 41.9592 60.5292 41.9365 60.6807 42.0164C60.8854 42.3239 60.7137 43.0733 60.783 43.5462L60.8538 43.5686C60.9817 43.5911 61.1314 43.6008 61.2325 43.673L60.7701 44.1444Z" fill="white"/>
<path d="M34.4111 41.9457C34.5632 41.9421 34.6133 41.9325 34.7612 41.9793C34.8833 42.1541 34.8477 44.9166 34.8494 45.3491C34.6843 45.3503 34.6192 45.3666 34.4776 45.2808C34.3575 45.0108 34.4092 42.4453 34.4111 41.9457Z" fill="white"/>
<path d="M60.8594 43.5692C61.4503 42.8978 61.9524 42.1661 62.7979 41.875C62.4016 42.3991 61.8699 42.9478 61.4184 43.4367C61.6809 43.7703 62.6419 44.9183 62.7174 45.2374L62.6683 45.2887C62.1717 45.1991 61.5099 44.1075 61.2381 43.6736C61.137 43.6014 60.9873 43.5917 60.8594 43.5692Z" fill="white"/>
</g>
<defs>
<clipPath id="clip0_527_4438">
<rect width="90" height="60" fill="white"/>
</clipPath>
</defs>
</svg>
