<svg width="46" height="46" viewBox="0 0 46 46" fill="none" xmlns="http://www.w3.org/2000/svg">
<path d="M45.484 13.0033C41.665 12.7932 37.8761 13.7859 34.6507 15.8417C33.8707 14.9533 33.069 14.065 32.224 13.22L31.5957 12.635L31.899 12.375C32.9586 11.4655 33.7137 10.2528 34.0624 8.90062C34.4111 7.54845 34.3366 6.12186 33.849 4.81334C33.1447 3.33606 32.0265 2.09511 30.6303 1.24124C29.2341 0.387371 27.62 -0.0426765 25.984 0.00334221V4.33668C26.7549 4.32594 27.5147 4.52108 28.1851 4.90194C28.8554 5.28281 29.412 5.83562 29.7974 6.50334C30.1657 7.37001 29.7974 8.32334 28.779 9.34167L28.2807 9.79667C26.0209 7.91335 23.5398 6.31265 20.8924 5.03001C15.4107 2.56001 12.594 3.70834 11.2074 5.03001C10.7856 5.45423 10.4475 5.95404 10.2107 6.50334L9.8207 7.65168L6.7007 17.055C9.1707 23.2083 15.1507 34.15 28.1507 38.8733L38.984 35.2767C39.3494 35.1407 39.6712 34.9086 39.9157 34.605L40.3707 34.215C43.469 31.095 41.4757 25.0933 37.3157 19.265C39.7858 17.8234 42.63 17.152 45.484 17.3367V13.0033ZM37.2724 31.1383H37.1424C35.6474 31.94 29.4507 29.9033 22.4307 22.8833C21.694 22.1467 21.0007 21.4317 20.3724 20.7167C20.1557 20.4783 19.9607 20.2183 19.744 19.9583L18.5957 18.5717L17.989 17.7267C17.6857 17.315 17.3824 16.9033 17.1224 16.5133C16.8624 16.1233 16.7757 15.95 16.6024 15.6683C16.429 15.3867 16.1257 14.9317 15.9307 14.5633C15.7357 14.195 15.649 14.0433 15.519 13.7617C15.389 13.48 15.1507 13.155 15.0207 12.8517C14.8907 12.5483 14.8257 12.3533 14.7174 12.115C14.609 11.8767 14.479 11.53 14.3924 11.2483C14.3057 10.9667 14.284 10.8367 14.2407 10.62C14.1974 10.4033 14.1107 10.1 14.0674 9.88334C14.057 9.71016 14.057 9.53652 14.0674 9.36334C14.047 9.17612 14.047 8.98723 14.0674 8.80001L14.3057 8.12834C14.674 7.73834 16.2774 7.63001 19.1374 8.93001C21.0474 9.85062 22.8556 10.969 24.5324 12.2667C23.6187 12.6686 22.6452 12.9175 21.6507 13.0033V17.3367C23.953 17.2088 26.1871 16.5088 28.1507 15.3L29.2124 16.2967C30.1657 17.2283 31.0107 18.16 31.7907 19.0483C30.4827 21.2754 29.9637 23.8783 30.3174 26.4367L34.6507 25.5917C34.5029 24.775 34.5029 23.9384 34.6507 23.1217C37.4457 27.39 37.9657 30.4667 37.2724 31.1383ZM5.18404 21.67L0.35237 36.1867C0.00364088 37.2525 -0.087922 38.3857 0.085167 39.4936C0.258256 40.6016 0.691083 41.6528 1.34827 42.5615C2.00545 43.4701 2.86833 44.2104 3.86638 44.7217C4.86443 45.233 5.96931 45.5008 7.0907 45.5033C7.82792 45.4965 8.55933 45.3722 9.25737 45.135L23.384 40.4333C15.411 36.3614 9.0111 29.7634 5.18404 21.67Z" fill="#101928"/>
</svg>
