<svg width="48" height="35" viewBox="0 0 48 35" fill="none" xmlns="http://www.w3.org/2000/svg">
<path d="M2.16667 20.2042C1.55279 20.2042 1.03856 19.9969 0.624007 19.5823C0.209452 19.1678 0.00145192 18.6528 7.47127e-06 18.0375C-0.00143697 17.4222 0.206563 16.9079 0.624007 16.4948C1.04145 16.0817 1.55567 15.8737 2.16667 15.8708H9.75001C10.3639 15.8708 10.8788 16.0788 11.2948 16.4948C11.7108 16.9108 11.9181 17.4251 11.9167 18.0375C11.9152 18.6499 11.7072 19.1649 11.2927 19.5823C10.8781 19.9998 10.3639 20.2071 9.75001 20.2042H2.16667ZM13.5417 34.6667C11.7361 34.6667 10.2014 34.0347 8.93751 32.7708C7.67362 31.5069 7.04167 29.9722 7.04167 28.1667H4.33334C3.61112 28.1667 3.03334 27.8958 2.60001 27.3542C2.16667 26.8125 2.04029 26.1986 2.22084 25.5125L2.70834 23.4542H9.47917C10.9958 23.4542 12.2778 22.9306 13.325 21.8833C14.3722 20.8361 14.8958 19.5542 14.8958 18.0375C14.8958 17.5681 14.8417 17.1347 14.7333 16.7375C14.625 16.3403 14.4806 15.9431 14.3 15.5458H16.3583C17.875 15.5458 19.157 15.0222 20.2042 13.975C21.2514 12.9278 21.775 11.6458 21.775 10.1292C21.775 8.6125 21.2514 7.33056 20.2042 6.28333C19.157 5.23611 17.875 4.7125 16.3583 4.7125H8.12501L8.45001 3.4125C8.66667 2.40139 9.16356 1.58022 9.94067 0.949C10.7178 0.317778 11.6292 0.00144444 12.675 0H34.6667C35.3889 0 35.9667 0.270833 36.4 0.8125C36.8333 1.35417 36.9597 1.96806 36.7792 2.65417L35.3708 8.66667H39.5417C40.2278 8.66667 40.8778 8.8205 41.4917 9.12817C42.1056 9.43583 42.6111 9.85978 43.0083 10.4L47.0708 15.7625C47.4681 16.2681 47.7208 16.8191 47.8292 17.4157C47.9375 18.0122 47.9375 18.6167 47.8292 19.2292L46.3667 26.4333C46.2583 26.9389 46.0056 27.3542 45.6083 27.6792C45.2111 28.0042 44.7597 28.1667 44.2542 28.1667H41.7083C41.7083 29.9722 41.0764 31.5069 39.8125 32.7708C38.5486 34.0347 37.0139 34.6667 35.2083 34.6667C33.4028 34.6667 31.8681 34.0347 30.6042 32.7708C29.3403 31.5069 28.7083 29.9722 28.7083 28.1667H20.0417C20.0417 29.9722 19.4097 31.5069 18.1458 32.7708C16.882 34.0347 15.3472 34.6667 13.5417 34.6667ZM6.50001 12.2958C5.88612 12.2958 5.3719 12.0878 4.95734 11.6718C4.54279 11.2558 4.33478 10.7416 4.33334 10.1292C4.3319 9.51672 4.5399 9.0025 4.95734 8.5865C5.37479 8.1705 5.88901 7.9625 6.50001 7.9625H16.25C16.8639 7.9625 17.3788 8.1705 17.7948 8.5865C18.2108 9.0025 18.4181 9.51672 18.4167 10.1292C18.4152 10.7416 18.2072 11.2566 17.7927 11.674C17.3781 12.0914 16.8639 12.2987 16.25 12.2958H6.50001ZM13.5417 30.3333C14.1556 30.3333 14.6705 30.1253 15.0865 29.7093C15.5025 29.2933 15.7098 28.7791 15.7083 28.1667C15.7069 27.5542 15.4989 27.04 15.0843 26.624C14.6698 26.208 14.1556 26 13.5417 26C12.9278 26 12.4136 26.208 11.999 26.624C11.5845 27.04 11.3765 27.5542 11.375 28.1667C11.3736 28.7791 11.5816 29.2941 11.999 29.7115C12.4165 30.1289 12.9307 30.3362 13.5417 30.3333ZM35.2083 30.3333C35.8222 30.3333 36.3372 30.1253 36.7532 29.7093C37.1692 29.2933 37.3765 28.7791 37.375 28.1667C37.3736 27.5542 37.1656 27.04 36.751 26.624C36.3365 26.208 35.8222 26 35.2083 26C34.5945 26 34.0802 26.208 33.6657 26.624C33.2511 27.04 33.0431 27.5542 33.0417 28.1667C33.0402 28.7791 33.2482 29.2941 33.6657 29.7115C34.0831 30.1289 34.5973 30.3362 35.2083 30.3333ZM32.8792 19.5H43.3333L43.55 18.3625L39.5417 13H34.3958L32.8792 19.5Z" fill="#101928"/>
</svg>
