<svg width="44" height="44" viewBox="0 0 44 44" fill="none" xmlns="http://www.w3.org/2000/svg">
<path d="M25.9467 0H8.66532C8.26283 0.000415868 7.86841 0.112938 7.52628 0.324952C7.18415 0.536965 6.90784 0.840087 6.72832 1.20033L0.228324 14.2003C0.0487726 14.5598 -0.0272693 14.9622 0.0086973 15.3624C0.0446638 15.7626 0.191222 16.1449 0.431991 16.4667L19.9017 42.4233C20.1822 42.8167 20.5863 43.105 21.0495 43.2424C21.5127 43.3798 22.0086 43.3585 22.4583 43.1817C22.8479 43.0293 23.185 42.7674 23.429 42.4277L42.8987 16.4667C43.1403 16.1445 43.2873 15.7614 43.3233 15.3603C43.3593 14.9592 43.2827 14.556 43.1023 14.196L36.6023 1.196C36.4222 0.836563 36.1456 0.534329 35.8036 0.323109C35.4615 0.111888 35.0674 1.34911e-05 34.6653 0H25.9467ZM24.4387 4.33333L27.3247 13H16.006L18.892 4.33333H24.4387ZM31.892 13L29.006 4.33333H33.3263L37.6597 13H31.892ZM27.3247 17.3333L21.6653 34.32L16.006 17.3333H27.3247ZM27.9443 29.185L31.892 17.3333H36.832L27.9443 29.185ZM15.3863 29.185L6.49866 17.3333H11.4387L15.3863 29.185ZM11.4387 13H5.67099L10.0043 4.33333H14.3247L11.4387 13Z" fill="#101928"/>
</svg>
